<svg width="24" height="24" viewBox="0 0 24 24" fill="none" xmlns="http://www.w3.org/2000/svg">
                                <path fill-rule="evenodd" clip-rule="evenodd" d="M4.3 11.8347V19.7H8.33158V15.175C8.33158 14.1809 9.13747 13.375 10.1316 13.375H13.8684C14.8625 13.375 15.6684 14.1809 15.6684 15.175V19.7H19.7V11.8115L12.2453 4.37672L4.3 11.8347ZM3.1578 11.1239C3.05712 11.2184 3 11.3503 3 11.4884V20.5C3 20.7761 3.22386 21 3.5 21H9.13158C9.40772 21 9.63158 20.7761 9.63158 20.5V15.175C9.63158 14.8988 9.85544 14.675 10.1316 14.675H13.8684C14.1446 14.675 14.3684 14.8988 14.3684 15.175V20.5C14.3684 20.7761 14.5923 21 14.8684 21H20.5C20.7761 21 21 20.7761 21 20.5V11.4795C21 11.3467 20.9471 11.2193 20.8531 11.1255L12.6153 2.90965C12.4243 2.71918 12.1167 2.71452 11.92 2.89912L3.1578 11.1239Z" fill="black"></path>
                            </svg>