<svg width="24" height="24" viewBox="0 0 24 24" fill="none" xmlns="http://www.w3.org/2000/svg">
                                <path class="fill" d="M21.6381 9.46088L12.3578 4.09468C12.1473 3.96844 11.8738 3.96844 11.6633 4.09468L2.3619 9.46088C2.02516 9.67138 1.89893 10.0922 2.08828 10.429C2.27764 10.7657 2.69848 10.871 3.03522 10.6815L4.71877 9.71337V19.5C4.71877 19.8787 5.03437 20.1945 5.41322 20.1945C5.79194 20.1945 6.10767 19.8789 6.10767 19.5V8.89265L12 5.50458L17.8712 8.89265V19.5C17.8712 19.8787 18.1868 20.1945 18.5657 20.1945C18.9444 20.1945 19.2601 19.8789 19.2601 19.5V9.71337L20.9437 10.6815C21.0489 10.7446 21.1752 10.7656 21.3014 10.7656C21.5329 10.7656 21.7854 10.6393 21.9116 10.4078C22.1011 10.0921 21.9749 9.67136 21.6381 9.46088Z" fill="black"></path>
                                <path class="fill stroke" d="M15.0625 19.8583H8.9726C8.93161 19.8408 8.89289 19.8209 8.8519 19.8084C8.5858 19.7409 8.35214 19.5673 8.19639 19.3215C8.04063 19.0756 7.97392 18.7751 8.00924 18.4783C8.04526 18.227 8.1299 17.9871 8.25748 17.7746C8.94072 16.5643 9.63762 15.3665 10.3277 14.1613C10.5286 13.8176 10.6324 13.4165 10.626 13.0084V11.5315C10.626 11.3543 10.626 11.1772 10.626 11H13.384V13.0084C13.378 13.4185 13.4792 13.822 13.6756 14.1712C13.8851 14.548 14.1037 14.9199 14.3178 15.2917L15.8073 17.8994C15.9751 18.1738 16.0367 18.51 15.9787 18.8342C15.9206 19.1584 15.7476 19.4441 15.4975 19.6287C15.3863 19.7126 15.2621 19.7735 15.1309 19.8084C15.1069 19.8229 15.084 19.8396 15.0625 19.8583ZM12.7259 11H11.4801C11.3298 11 11.2751 11.0424 11.2774 11.2146V13.0583C11.2795 13.5891 11.141 14.1092 10.8788 14.5555C10.1774 15.7783 9.49186 17.0135 8.76763 18.2188C8.70507 18.3095 8.66816 18.4183 8.66146 18.5318C8.65477 18.6453 8.67859 18.7584 8.72997 18.8572C8.78135 18.956 8.85804 19.0361 8.95055 19.0876C9.04306 19.1392 9.14733 19.1598 9.25045 19.1471C11.0975 19.1271 12.9445 19.1471 14.7892 19.1471C15.2743 19.1471 15.4998 18.7304 15.2447 18.2787C14.6139 17.1607 13.9876 16.0328 13.3294 14.9348C12.9086 14.2866 12.6956 13.5038 12.7236 12.7089C12.7486 12.2098 12.7236 11.7636 12.7236 11.272L12.7259 11Z" fill="black" stroke="black" stroke-width="0.2"></path>
                                <path class="fill" d="M11.9996 18.5281H9.57638C9.49781 18.5155 9.42119 18.4911 9.34863 18.4558C9.36312 18.3698 9.38682 18.2861 9.41923 18.2062C9.85878 17.4327 10.3052 16.6641 10.7402 15.8855C10.7773 15.8032 10.8364 15.7352 10.9096 15.6906C10.9828 15.646 11.0667 15.627 11.1501 15.636C11.7491 15.6534 12.3458 15.6534 12.9447 15.6534C12.9992 15.6485 13.0537 15.6609 13.1018 15.6893C13.1499 15.7176 13.1895 15.7606 13.2158 15.8131C13.6712 16.6366 14.1518 17.4551 14.6187 18.2786C14.712 18.4433 14.6574 18.5281 14.4547 18.5281H11.9996Z" fill="black"></path>
                                <path class="stroke" d="M10 11L14 11" stroke="black" stroke-linecap="round"></path>
                            </svg>