<svg width="24" height="24" viewBox="0 0 24 24" fill="none" xmlns="http://www.w3.org/2000/svg">
                                <path fill-rule="evenodd" clip-rule="evenodd" d="M4.3 8.3V15.7H8.63795C9.176 15.7 9.69703 15.8886 10.1104 16.2331L13.7 19.2244V4.77555L10.1104 7.76691M4.3 8.3H8.63795C9.176 8.3 9.69703 8.11136 10.1104 7.76691M4 7H8.63795C8.87189 7 9.09842 6.91798 9.27813 6.76822L13.3598 3.36682C14.0111 2.82405 15 3.2872 15 4.13504V19.865C15 20.7128 14.0111 21.176 13.3598 20.6332L9.27813 17.2318C9.09842 17.082 8.87189 17 8.63795 17H4C3.44772 17 3 16.5523 3 16V8C3 7.44771 3.44772 7 4 7Z" fill="black"></path>
                                <path fill-rule="evenodd" clip-rule="evenodd" d="M16.3496 12C16.3496 11.641 16.6406 11.35 16.9996 11.35H19.9996C20.3586 11.35 20.6496 11.641 20.6496 12C20.6496 12.359 20.3586 12.65 19.9996 12.65H16.9996C16.6406 12.65 16.3496 12.359 16.3496 12Z" fill="black"></path>
                                <path fill-rule="evenodd" clip-rule="evenodd" d="M16.8302 9.48055C16.5648 9.23882 16.5456 8.82771 16.7873 8.56231L19.5197 5.56231C19.7614 5.29691 20.1726 5.27772 20.438 5.51945C20.7034 5.76118 20.7225 6.17229 20.4808 6.43769L17.7484 9.43769C17.5067 9.70309 17.0956 9.72228 16.8302 9.48055Z" fill="black"></path>
                                <path fill-rule="evenodd" clip-rule="evenodd" d="M16.8302 14.5194C16.5648 14.7612 16.5456 15.1723 16.7873 15.4377L19.5197 18.4377C19.7614 18.7031 20.1726 18.7223 20.438 18.4806C20.7034 18.2388 20.7225 17.8277 20.4808 17.5623L17.7484 14.5623C17.5067 14.2969 17.0956 14.2777 16.8302 14.5194Z" fill="black"></path>
                            </svg>