<svg width="24" height="24" viewBox="0 0 24 24" fill="none" xmlns="http://www.w3.org/2000/svg">
    <path fill-rule="evenodd" clip-rule="evenodd" d="M11.2929 16.6931C11.1054 16.5056 11 16.2512 11 15.986V12.987V5.83L8.4141 8.414L7.0001 7L12 2L17 7L15.586 8.414L13 5.828V15.986C13 16.2512 12.8947 16.5056 12.7071 16.6931C12.5196 16.8806 12.2652 16.986 12 16.986C11.7348 16.986 11.4804 16.8806 11.2929 16.6931ZM8 12H6V20H18V12H16V10H20V11V12V20C20 20.5304 19.7893 21.0391 19.4142 21.4142C19.0391 21.7893 18.5304 22 18 22H6C5.46957 22 4.96086 21.7893 4.58579 21.4142C4.21071 21.0391 4 20.5304 4 20V12V11V10H8V12Z" fill="white"></path>
</svg>